<?xml version="1.0" encoding="UTF-8"?>
<svg width="250px" height="95px" viewBox="0 0 250 95" version="1.1" xmlns="http://www.w3.org/2000/svg" xmlns:xlink="http://www.w3.org/1999/xlink">
    <!-- Generator: Sketch 52.6 (67491) - http://www.bohemiancoding.com/sketch -->
    <title>分组</title>
    <desc>Created with Sketch.</desc>
    <defs>
        <polygon id="path-1" points="0 0.232165862 249.693919 0.232165862 249.693919 14.0900564 0 14.0900564"></polygon>
        <polygon id="path-3" points="0 0.150644231 67.973205 0.150644231 67.973205 74.6583684 0 74.6583684"></polygon>
    </defs>
    <g id="Page-1" stroke="none" stroke-width="1" fill="none" fill-rule="evenodd" opacity="0.8">
        <g id="课程记录-学生" transform="translate(-63.000000, -81.000000)">
            <g id="分组" transform="translate(63.000000, 81.000000)">
                <path d="M213.891586,28.090942 C215.094887,25.3312802 214.072343,23.177496 211.608977,22.211715 C210.514372,21.782971 207.896417,22.1992351 205.262762,23.4222625 C204.99062,22.7584138 206.714452,22.3687198 205.679428,22.5921498 C202.925805,23.1863527 202.146417,24.0446457 199.916948,25.762037 C198.577174,26.7938406 196.792552,29.2491546 195.666546,30.4383655 C193.816707,32.3916667 192.632327,33.2749195 191.163728,35.5450483 C193.418961,35.4516506 197.624275,35.0180757 201.003905,34.3373188 C207.417351,33.0454509 212.790539,30.6171095 213.891586,28.090942 M193.900443,41.6738728 C191.08281,42.0229066 183.303019,43.0712158 183.303019,43.0712158 C180.208011,47.3848229 174.480556,55.5482689 171.430636,59.8936795 C170.716063,60.9117955 172.12025,61.5663849 171.269203,62.3252415 C172.899638,63.0237118 176.29215,63.2914251 177.131119,63.5720209 C173.223309,63.4701691 168.394404,63.1783011 165.446739,63.1420692 C164.632327,62.8691224 167.655274,58.0937601 167.542552,57.5929549 C166.519203,58.5317633 165.301812,62.1589775 164.048994,63.3538245 C162.418961,63.3538245 159.721296,63.2523752 156.937882,63.1203301 C159.041345,60.0382045 155.265982,62.8880435 158.959219,58.0993961 C163.629509,52.0535024 165.142794,50.2922303 169.945531,44.3586554 C170.221296,44.0180757 163.55624,45.8489936 160.943921,46.0989936 C161.275242,45.406562 166.586433,43.5800725 166.934662,43.4548712 C168.978945,42.722182 165.057045,43.1601852 165.369042,42.9939211 C166.533293,42.3727456 167.46244,42.0249195 168.241023,41.906562 C168.803019,41.8212158 168.508333,40.4480274 168.629509,40.2958535 C168.712037,40.1931965 172.255918,38.722182 172.588849,38.5720209 C173.006723,38.3832126 170.077979,38.7503623 170.259944,38.5683977 C170.605757,38.2229871 175.758736,36.8586554 176.160105,36.4758052 C176.970894,35.7024557 178.173792,34.1404589 178.56711,33.6420692 L194.340056,15.2716989 C193.51719,14.8896538 194.843277,14.3365137 192.125886,13.9480274 C191.96405,13.9250805 192.125886,13.9480274 191.673792,13.201248 C191.349316,12.6654187 187.608172,12.6770934 187.029267,12.4085749 C194.002295,11.9029388 202.483776,11.3594605 208.475322,12.1130837 C208.716868,12.7519726 208.175805,13.9874799 207.200362,15.5112319 C207.047786,15.7491546 207.658897,15.9423913 207.486594,16.1931965 C205.30463,19.3715378 205.054227,18.8852254 202.59851,21.5663849 C202.337238,21.8522142 202.085225,22.1501208 201.859783,22.464533 C201.794968,22.5555153 201.839251,22.7241948 201.826771,22.9898953 C203.941908,21.7821659 205.827174,20.2499597 208.045773,19.4637279 C210.728543,18.5132448 218.549799,18.9299114 218.860588,27.4697665 C219.170974,36.0100242 210.340459,39.6368357 193.900443,41.6738728" id="Fill-1" fill="#000000"></path>
                <path d="M209.317794,58.4614734 C218.625362,45.0029388 227.838728,31.6812802 237.084702,18.3113124 C237.780354,18.10157 238.704267,17.8229871 239.752174,17.5073671 C240.915217,20.0915056 242.435749,23.0633253 243.562158,26.1728261 C244.003382,27.39062 244.099195,29.2807166 243.426892,30.2388486 C240.772705,34.0202496 238.06256,37.8547907 234.796457,41.1124396 C228.992512,46.9014895 222.684138,52.2006039 216.761433,57.880153 C216.180515,58.4369163 215.088325,59.5242754 214.434944,59.7630032 C214.158776,59.8640499 214.341143,59.2320048 214.058132,59.2863527 C212.909179,59.5073671 211.723591,59.3660628 210.630998,59.064533 C210.5219,59.0343398 210.919646,58.4783816 210.941385,58.3656602 C211.057327,57.7666264 210.165217,58.7549517 209.998148,58.7006039 C209.668035,58.5923108 209.661594,58.5830515 209.317794,58.4614734" id="Fill-3" fill="#000000"></path>
                <path d="M211.738366,63.8309984 C211.882488,64.8096618 209.605113,67.8257649 208.521779,68.2331723 C208.345853,68.2991948 208.031844,68.6333333 207.836192,68.652657 C207.551167,68.6804348 207.366787,68.3611916 207.015741,68.2939614 C206.422746,68.1808374 205.724678,67.9525765 204.886111,67.6820451 C204.663889,67.6103865 204.51252,67.8571659 204.264936,67.7597424 C204.730717,66.5564412 203.536272,67.2891304 203.566063,66.9916264 C203.743196,65.2086151 205.725886,62.2291465 206.384501,61.539533 C206.640539,61.2714171 206.798349,61.7871176 207.059622,61.539533 C207.735548,60.8986312 209.26252,61.7979871 211.329348,62.9461353 C211.560427,63.0741546 211.494002,63.6852657 211.738366,63.8309984" id="Fill-5" fill="#000000"></path>
                <path d="M213.267271,74.1069243 C221.696014,64.7095813 231.219767,56.30781 239.760024,47.0119163 C240.020894,47.0553945 240.281763,47.0988728 240.543035,47.142351 C240.741908,48.3633655 240.821216,49.2083736 241.036997,50.4253623 C241.081683,50.6741546 237.208897,55.1681159 237.260427,55.4152979 C237.319605,55.7027375 241.070008,51.4044283 241.142069,51.6886473 C241.466143,52.9636071 242.324839,54.9426731 242.980233,56.0960548 C243.75157,57.4519324 243.04062,58.1334944 242.037399,58.8355878 C234.621538,64.0247987 227.294243,69.3404187 219.729026,74.3146538 C218.959702,74.8198873 216.997947,76.0195652 215.910185,76.0666667 C215.704066,76.0759259 216.428704,75.0139291 216.219767,75.0191626 C215.448833,75.036876 214.667834,75.0400966 213.946014,75.1278583 C213.719767,74.7872786 213.493519,74.4471014 213.267271,74.1069243" id="Fill-7" fill="#000000"></path>
                <path d="M215.244404,78.5340982 C215.244404,79.1886876 212.777415,82.8485105 211.738366,82.4330515 C211.350282,82.277657 211.56244,82.0836151 211.214614,81.9757246 C211.088205,81.9358696 210.950121,81.9245974 210.810427,81.8799114 C210.392552,81.7442432 209.92194,81.4950483 209.295934,81.1822464 C209.295934,81.1822464 208.876852,81.3219404 208.767754,81.2683977 C208.622021,81.1971417 208.683213,80.8811192 208.520974,80.8054348 C209.51413,78.8911836 210.869203,77.0558374 211.738366,76.4551932 C212.086997,76.2140499 211.940056,76.6794283 212.30157,76.6367552 C213.231119,76.5280596 215.244404,77.9688808 215.244404,78.5340982" id="Fill-9" fill="#000000"></path>
                <path d="M141.375523,27.4811997 C139.234219,27.3028583 137.50314,26.8680757 135.848953,27.0685588 C126.2938,28.2287842 117.108615,30.8805556 108.125121,34.2787037 C107.566345,34.4900564 106.982609,34.635789 106.410548,34.8121176 C106.322383,34.5770129 106.234219,34.3419082 106.146055,34.1068035 C113.191948,31.3974638 120.23744,28.6877214 127.283333,25.9779791 C127.427858,25.9220209 127.611031,25.7706522 127.706844,25.814533 C127.695169,25.9920692 127.482609,26.616868 127.598551,26.7287842 C127.714493,26.8411031 128.142029,26.714694 128.375121,26.6897343 C131.353382,26.3781401 138.672625,24.8902174 143.078422,24.948591 C142.390821,25.9707327 141.693156,27.0081723 141.375523,27.4811997 M162.88438,31.6587359 C165.524074,28.5532609 169.063527,35.540781 166.14525,36.938124 C164.788164,37.5874799 154.18913,41.7513285 154.18913,41.7513285 C154.18913,41.7513285 162.073591,32.6124396 162.88438,31.6587359 M173.598148,37.869686 C176.635588,35.2811192 168.474155,23.7396538 163.505556,24.8266103 C159.942754,26.3930354 157.604992,28.0874799 153.553865,32.3757246 C144.917794,39.9518116 143.010386,41.6253221 134.094525,49.4465781 C140.227778,40.8817633 146.562721,32.4916667 152.980193,24.1659823 C153.406924,23.6128422 154.450805,23.3423108 155.233011,23.2855475 C166.67504,22.4594605 178.123913,21.7291868 189.563929,20.8716989 C191.323188,20.7400564 193.044605,20.0902979 194.782931,19.6796699 C191.280113,20.0717794 187.663366,19.4811997 185.51562,19.314533 C184.815539,19.2601852 185.898873,18.5927134 185.199195,18.5222625 C182.235427,18.2227456 180.177456,18.1208937 177.211675,18.0894928 C171.472142,18.0291063 165.728986,18.322182 159.987037,18.4598631 C159.204026,18.4783816 158.419807,18.4622786 157.351369,18.4622786 C159.080435,16.1869163 160.519646,14.2940016 162.180676,12.1084138 C160.477778,9.6486715 156.169404,7.4791868 153.723349,5.72838164 C154.943156,7.78111916 153.960064,9.43168277 153.352979,10.3837762 C151.650081,13.0568841 149.770853,15.6204911 147.883575,18.1692029 C147.575201,18.5850644 146.885588,18.89062 146.346135,18.935306 C141.943156,19.3028583 137.524074,19.493277 133.133172,19.9614734 C131.377536,20.1486715 130.486232,19.5496377 129.640821,18.1281401 C128.614654,16.4035024 127.313929,14.8427134 126.330837,13.4852254 C124.376731,9.45462963 125.417794,14.5029388 123.369082,15.5456119 C120.117874,17.2006039 116.911353,19.6043881 114.195572,20.9043076 C103.410548,26.067351 90.2772947,34.4280596 80.8867955,41.8817633 C75.4657005,47.845934 81.987037,43.0713768 77.3380837,47.6337762 C78.368277,49.0943237 78.6597424,50.6832931 79.658132,50.7569646 C80.628744,51.4783816 82.7873591,49.1740338 84.1911433,48.246095 C97.1037842,39.709058 111.194767,33.9747585 126.475765,31.3113124 C127.973752,31.0500403 128.889614,30.7617955 129.617069,32.1245169 C130.391626,33.575 129.55628,34.3737118 128.333655,35.3527778 C122.594928,39.948591 116.947182,44.73281 110.793398,48.7183172 C102.232206,54.2634058 93.2644122,59.1836957 84.4314815,64.304066 C82.9733494,65.1490741 81.3976651,66.1700081 78.826409,64.9417472 C80.497504,62.9743559 81.3827697,61.8302335 82.8823671,60.1607488 C83.1223027,59.8938406 82.5011272,59.6112319 82.7636071,59.3189614 C84.1694042,57.7533414 86.723752,55.903905 88.1404187,54.6104267 C89.7676329,53.1241143 99.5003221,45.7529388 101.241063,44.3910225 C101.119887,44.2384461 93.0953301,50.1929549 92.9741546,50.0399758 C90.6778583,51.7074477 88.4745572,53.1953704 86.1194847,55.0806361 C82.1412238,58.2654187 78.5200483,61.9208132 75.1388084,65.7175121 C73.3461353,67.7303945 75.3324477,69.7927939 77.5619163,70.903905 C78.0643317,71.1543076 76.7857488,71.7191224 77.6150564,72.0802335 C79.1247182,72.7376409 80.9383253,72.767029 82.3364734,72.767029 C82.5313205,73.0250805 88.6166667,70.0283011 88.2756844,70.2054348 C87.0937198,70.8201691 83.3847826,73.0001208 83.3847826,73.0001208 C84.0925121,73.6172705 84.9113527,74.9006844 85.8300322,74.8632448 C86.9057166,74.8201691 89.0562802,73.4473833 90.1613527,72.777496 C92.7374396,71.2163043 95.5293076,70.0154187 98.189533,68.5878824 C107.612641,63.530314 116.520048,57.6812802 124.931079,50.8672705 C124.398068,53.2807166 122.072383,56.6059984 121.814734,58.8704911 C121.721739,59.6885266 124.026087,59.7952093 124.712882,60.3165459 C125.726973,61.0874799 126.822786,60.7187198 127.669807,59.572182 C128.394444,58.5915056 128.768035,58.2678341 129.675845,57.4385266 C130.454026,56.7283816 130.7938,57.4964976 131.59694,56.8129227 C132.400081,56.1293478 134.227778,53.4799919 134.968519,52.7344203 C137.753543,49.9312802 140.428261,47.0182367 143.148873,44.1514895 L143.466103,44.461876 C140.024879,49.3322464 136.583253,54.2030193 133.284138,58.8712963 C134.13438,59.5762077 134.657729,59.8970612 135.034138,60.3419082 C136.738647,62.3559984 140.914171,62.4477858 142.643237,60.5246779 C142.993881,60.1349839 158.339694,50.9900564 158.692351,50.6023752 C160.563929,48.543599 147.468519,55.2666264 149.352174,53.2191224 L143.314332,56.4264493 C143.336876,55.6068035 143.589694,54.9659018 144.003945,54.4562399 C146.656924,51.1905395 150.563124,46.9755636 153.227375,43.7187198 C153.392029,43.5178341 154.466908,43.2352254 156.441948,42.6257246 C157.09372,42.424839 152.875121,44.4002818 153.723349,44.1192834 C153.883575,44.0661433 155.230193,43.6494767 156.285346,43.3817633 C156.529308,43.3201691 154.881965,44.0633253 155.121095,44.0029388 C155.357407,43.9429549 156.510386,43.7320048 156.867472,43.6535024 C157.201208,43.5802335 157.305878,43.8986715 157.642432,43.827818 C158.333253,43.6824879 160.17182,43.1708132 160.244686,43.1490741 C165.532126,41.5597021 170.751127,40.2960145 173.598148,37.869686" id="Fill-11" fill="#000000"></path>
                <path d="M201.863808,47.1472625 L192.524436,49.2628019 L203.576369,45.0832528 L203.576369,44.7479066 C202.798591,44.8308374 202.403663,43.8638486 202.028865,43.2334138 C201.574356,42.4697262 200.998269,41.7780998 200.562681,41.1766506 C199.696337,39.3904187 200.158092,41.6275362 199.250282,42.089694 C197.809863,42.8227858 196.388768,43.8876006 195.185467,44.4636876 C190.406884,46.7515298 184.587641,50.4560386 180.427013,53.7583736 C178.024839,56.4008857 180.914533,54.2853462 178.854952,56.3070853 C179.311071,56.9540258 179.440298,57.658132 179.882327,57.6911433 C180.312681,58.010789 181.269203,56.9894525 181.891184,56.5784219 C187.612601,52.7958132 193.855757,50.255153 200.626691,49.0747987 C201.290137,48.9592593 201.796578,48.7877617 202.0188,49.4355072 C202.142794,49.7986312 201.991425,50.4318841 201.44996,50.8654589 C198.906884,52.9020934 196.404469,55.0220612 193.678221,56.7877617 C189.884742,59.244686 185.911312,61.4246377 181.997464,63.6935588 C181.351329,64.0679549 180.652858,64.5200483 179.513969,63.9761675 C180.254308,63.1045894 180.64682,62.597343 181.311071,61.85781 C181.417351,61.7394525 181.141989,61.6142512 181.258333,61.4846216 C181.881522,60.7909823 183.013164,59.9713366 183.640781,59.3984702 C184.361795,58.7398551 188.674195,55.473752 189.445531,54.8706924 C189.391989,54.8030596 185.836433,57.4407407 185.78289,57.3731079 C184.765177,58.1118357 183.789332,58.7716586 182.745451,59.6066023 C180.982971,61.0176329 179.378301,62.6376006 177.880314,64.3195652 C177.085628,65.2116747 177.966063,66.1255233 178.953986,66.6178744 C179.17661,66.7289855 178.609783,66.9789855 178.977335,67.1388084 C179.646417,67.4302738 180.44996,67.4435588 181.069525,67.4435588 C181.155676,67.5574879 183.852134,66.2293881 183.701167,66.3082931 C183.177013,66.5804348 181.533696,67.5466184 181.533696,67.5466184 C181.847303,67.8199678 182.210427,68.3888084 182.617029,68.3723027 C183.09368,68.3529791 184.046578,67.744686 184.536514,67.4479871 C185.677818,66.7563607 186.914533,66.2241546 188.093277,65.5913043 C192.2688,63.3505636 196.21566,60.7591787 199.942311,57.7398551 C213.215258,45.3928341 201.863808,47.1472625 201.863808,47.1472625" id="Fill-13" fill="#000000"></path>
                <path d="M106.940097,67.7679147 C106.940097,67.7679147 107.250483,69.0098631 106.940097,69.6310386 C106.62971,70.2522142 105.542754,71.1837762 105.542754,71.6495572 C105.542754,72.1153382 106.750483,72.8919082 107.07818,73.5130837 C107.405878,74.1338567 107.716667,74.9104267 108.492834,74.9104267 C109.269404,74.9104267 109.424396,73.9788647 111.132528,73.6680757 C112.84066,73.3576892 210.351932,71.4945652 212.060064,71.3391707 C213.768196,71.1837762 168.428422,70.0968196 167.807246,70.0968196 C167.186071,70.0968196 168.117633,68.8544686 165.94372,69.0098631 C163.770209,69.1652576 169.980757,66.9913446 166.564895,66.9913446 C163.149034,66.9913446 106.940097,67.7679147 106.940097,67.7679147" id="Fill-15" fill="#000000"></path>
                <g transform="translate(0.000000, 80.767311)">
                    <mask id="mask-2" fill="white">
                        <use xlink:href="#path-1"></use>
                    </mask>
                    <g id="Clip-18"></g>
                    <path d="M3.27447665,1.59086151 C3.27447665,1.59086151 4.00193237,3.76437198 3.27447665,4.85173108 C2.54661836,5.93828502 -8.05152979e-05,7.56871981 -8.05152979e-05,8.3839372 C-8.05152979e-05,9.19875201 2.82962963,10.5574477 3.59774557,11.6448068 C4.36586151,12.7317633 5.09371981,14.0900564 6.91256039,14.0900564 C8.73180354,14.0900564 9.09533011,12.4596216 13.0977456,11.9161433 C17.0997585,11.3730676 245.581643,8.11219807 249.583655,7.84045894 C253.585266,7.56871981 147.348953,5.66654589 145.893639,5.66654589 C144.438325,5.66654589 146.621095,3.49303543 141.527697,3.76437198 C136.4343,4.03611111 150.987037,0.232165862 142.983011,0.232165862 C134.978583,0.232165862 3.27447665,1.59086151 3.27447665,1.59086151" id="Fill-17" fill="#000000" mask="url(#mask-2)"></path>
                </g>
                <g transform="translate(0.000000, 0.252013)">
                    <mask id="mask-4" fill="white">
                        <use xlink:href="#path-3"></use>
                    </mask>
                    <g id="Clip-20"></g>
                    <path d="M12.126248,62.1275362 C15.1210145,54.2567633 19.7683575,47.0904992 24.5376812,40.0369565 C31.7711755,29.3380837 36.263124,21.0160225 44.9285829,14.1049919 C46.5300322,12.8276167 54.3565217,8.00958132 58.0553945,7.92826087 C57.2820451,10.7201288 56.4217391,12.2056361 55.6713366,14.6158615 C55.5513688,15.0011272 56.4366345,14.9673108 56.3049919,15.3896135 C55.6020934,17.6500805 53.2639291,20.9161836 51.6673108,22.7181159 C51.6141707,22.7785024 50.5658615,22.9785829 50.5272142,23.0590982 C50.4124799,23.2974235 50.5622383,23.4926731 50.4704509,23.6464573 C50.0163446,24.4069243 47.4410628,24.6041868 48.6057166,24.8698873 C50.0835749,25.2072464 46.5481481,25.9777778 44.5296296,26.5977456 C44.5296296,26.5977456 61.6902576,26.3320451 61.2035427,25.734219 C61.3122383,25.5510467 61.1286634,24.642029 61.1826087,24.4713366 C61.9720612,21.9922705 61.6536232,22.5695652 62.8130435,19.6202899 C64.923752,14.2519324 66.2643317,11.9294686 67.937037,6.46288245 C68.823913,3.56433172 53.1363124,1.26642512 49.9012077,1.29138486 C49.1721417,1.29661836 50.3186795,0.0917069243 49.1459742,0.152898551 C47.0115137,0.264009662 44.8959742,1.15008052 43.2780193,1.85619968 C42.9004026,1.69919485 37.6278583,7.73904992 37.9173108,7.39122383 C38.9225443,6.18550725 41.9277778,2.15450886 41.9277778,2.15450886 C40.7450081,1.90088567 39.0409018,1.04339775 37.999839,1.5442029 C36.7812399,2.12995169 35.1028986,4.57479871 34.2188406,5.79621578 C32.1588567,8.64283414 29.6371176,11.2410628 27.4016103,13.997504 C19.481723,23.7632045 12.626248,34.0522544 6.91288245,45.0454106 C-11.3113527,87.7644122 11.5855878,73.0132045 17.5509662,68.5953301 C22.2752013,65.0969404 33.3738325,55.5413849 33.3738325,55.5413849 C33.3738325,55.5413849 26.6805958,65.6086151 24.5811594,69.813124 C24.1592593,70.6585346 25.5413043,71.1380032 25.7031401,71.5530596 C25.9358293,72.1512882 24.9595813,73.2398551 26.4793076,73.3135266 C27.4092593,73.3586151 27.5070853,72.4520129 27.573913,72.6645733 C27.6246377,72.823591 29.8887279,68.8751208 30.3806763,68.9612721 C30.544525,68.9898551 27.6206119,73.2970209 27.8766506,73.2970209 C30.4825282,73.2970209 56.7574879,72.5828502 59.3194847,72.5828502 L41.9289855,71.5530596 C41.365781,71.4117552 40.1677134,71.7016103 39.6966989,71.5530596 C39.1427536,71.3783414 40.4539452,70.755153 40.3255233,69.9862319 C40.1890499,69.1681965 39.0811594,69.1661836 39.3388084,68.7281804 L54.0139291,40.3139291 C56.7683575,31.6710145 52.0388889,39.6915459 54.7268921,32.8268116 C52.6741546,31.9000805 51.3995974,30.4733494 50.2007246,30.9041063 C48.6520129,30.6802738 47.5139291,34.0518519 46.4374396,35.6794686 C36.5324477,50.6520934 32.6190016,54.6110306 16.6596618,65.1915459 C10.3371981,69.3831723 11.6399356,63.4061192 12.126248,62.1275362" id="Fill-19" fill="#000000" mask="url(#mask-4)"></path>
                </g>
                <path d="M71.2981079,36.3869968 C71.2981079,36.3869968 31.7582528,40.9574477 30.9949678,41.211876 C30.2320853,41.4663043 30.9808776,39.7018116 30.9808776,39.7018116 C30.9808776,39.7018116 29.2441626,40.811715 28.8109903,41.5081723 C28.8109903,41.5081723 30.0847424,38.4578502 31.1588164,35.674839 C31.2469807,35.4477858 38.2824074,34.3398953 38.3697665,34.1221014 C38.4627617,33.8910225 31.4828905,35.00938 31.5742754,34.7948068 C32.0630032,33.6446457 32.645934,32.3113124 32.9865137,32.135789 C34.1837762,31.519847 41.048913,29.0391707 68.6370773,32.5154187 C69.2952899,32.7283816 70.0710548,33.7948068 70.0710548,33.7948068 C70.0710548,33.7948068 69.6350644,33.9671095 69.8572866,34.3527778 C70.0799114,34.7380435 85.4386071,34.9876409 85.5646135,35.4538245 C85.69062,35.9196055 70.7465781,35.8950483 71.2981079,36.3869968" id="Fill-21" fill="#000000"></path>
                <path d="M49.8296699,55.5781804 C49.8296699,55.5781804 71.8518116,49.4247987 72.2149356,49.2045894 C72.5780596,48.98438 72.7833736,50.1220612 72.7833736,50.1220612 C72.7833736,50.1220612 73.4138084,49.2987923 73.4150161,48.8382448 C73.4150161,48.8382448 73.7825684,50.8032206 74.1702496,52.5878422 C74.2020531,52.7339775 70.3928744,54.008132 70.4210548,54.1478261 C70.451248,54.2963768 74.2229871,53.0202093 74.2479469,53.1590982 C74.3811997,53.9006441 74.5261272,54.7621578 74.3868357,54.8978261 C73.8973027,55.3744767 70.6996377,57.4698873 52.861876,57.7074074 C52.3880435,57.6337359 51.5273349,57.0508052 51.5273349,57.0508052 C51.5273349,57.0508052 51.725,56.9090982 51.44843,56.6933172 C51.1718599,56.4775362 47.7652576,56.6961353 47.2572061,56.5797907 C46.8977053,56.4976651 50.3429549,55.8305958 49.8296699,55.5781804" id="Fill-23" fill="#000000"></path>
                <path d="M158.030958,77.4486312 C158.075242,77.4309179 158.140862,77.4470209 158.227415,77.4961353 C158.313567,77.5456522 158.394485,77.6052335 158.469767,77.6748792 C158.545048,77.7441224 158.599396,77.8165862 158.63281,77.8922705 C158.666224,77.9671498 158.655354,78.0223027 158.599396,78.0573269 C158.538205,78.0975845 158.430717,78.1877617 158.277335,78.3266506 C158.123953,78.4655395 157.959702,78.6165056 157.784179,78.7791465 C157.608655,78.9413849 157.435548,79.0903382 157.266063,79.2268116 C157.095773,79.3628824 156.963325,79.4486312 156.868317,79.4832528 C156.807126,79.5122383 156.71091,79.5440419 156.580072,79.5786634 C156.448833,79.6136876 156.311151,79.6660225 156.166224,79.7352657 C156.249557,79.7586151 156.330475,79.794847 156.408575,79.8439614 C156.486675,79.8930757 156.542633,79.9615137 156.576047,80.0484702 C156.609461,80.1354267 156.606643,80.2747182 156.567593,80.4655395 C156.528543,80.6571659 156.478623,80.852818 156.417029,81.052496 C156.355435,81.2525765 156.299879,81.4297101 156.249557,81.5830918 C156.199638,81.7364734 156.179911,81.8222222 156.191184,81.839533 C156.202456,81.8516103 156.229831,81.85 156.274919,81.8351047 C156.319203,81.8206119 156.361473,81.8061192 156.400121,81.7916264 C156.439171,81.7775362 156.468559,81.7727053 156.487882,81.778744 C156.507609,81.7847826 156.497544,81.8133655 156.458897,81.8657005 C156.413808,81.9297101 156.359863,81.9977456 156.295451,82.0698068 C156.231441,82.1422705 156.167432,82.2074879 156.103422,82.2658615 C156.039412,82.32343 155.976208,82.3717391 155.915016,82.4087762 C155.853824,82.4470209 155.801087,82.4655395 155.756401,82.4655395 C155.706481,82.4655395 155.653341,82.4514493 155.597383,82.4220612 C155.541425,82.3930757 155.492713,82.3568438 155.451248,82.3133655 C155.40938,82.2702899 155.372746,82.2252013 155.34215,82.1785024 C155.311554,82.1326087 155.296256,82.0887279 155.296256,82.0484702 C155.29062,81.9900966 155.305113,81.9019324 155.338527,81.7831723 C155.37194,81.6644122 155.413406,81.5335749 155.463728,81.391868 C155.513647,81.2497585 155.569605,81.1020129 155.630797,80.9482287 C155.691989,80.794847 155.746337,80.6527375 155.793841,80.5223027 C155.841345,80.391868 155.878784,80.281562 155.906965,80.1917874 C155.934742,80.1020129 155.940378,80.0452496 155.923873,80.0223027 C155.906965,80.0049919 155.87194,80.0037842 155.819203,80.0178744 C155.766063,80.0323671 155.702053,80.0597424 155.626771,80.1004026 C155.55149,80.1410628 155.467754,80.1929952 155.375564,80.2570048 C155.284179,80.3210145 155.193196,80.3874396 155.103824,80.4570853 C154.942391,80.7002415 154.793438,80.9337359 154.656562,81.1571659 C154.520089,81.3801932 154.398913,81.5802738 154.293035,81.7570048 C154.186755,81.9341385 154.097383,82.0847021 154.025322,82.2090982 C153.952858,82.3338969 153.902536,82.4192432 153.874758,82.4655395 C153.841345,82.5178744 153.791425,82.5408213 153.724597,82.5351852 C153.657367,82.5291465 153.589332,82.5090177 153.519283,82.4739936 C153.449638,82.439372 153.388446,82.3958937 153.335709,82.3439614 C153.282568,82.2916264 153.255998,82.2392915 153.255998,82.1873591 C153.255998,82.1233494 153.296256,82.0045894 153.377174,81.8310789 C153.458092,81.6567633 153.566787,81.452657 153.703261,81.2175523 C153.840137,80.9828502 153.994726,80.7252013 154.167432,80.4438003 C154.340137,80.1628019 154.521296,79.8801932 154.711312,79.5963768 C154.900523,79.3121578 155.090137,79.0384058 155.27975,78.7747182 C155.469364,78.5110306 155.644485,78.2775362 155.806723,78.0746377 C155.861876,78.0049919 155.887238,77.960306 155.881602,77.9397746 C155.875966,77.9196457 155.858253,77.907971 155.827254,77.905153 C155.796659,77.9023349 155.763245,77.9023349 155.727013,77.905153 C155.690781,77.907971 155.669847,77.9007246 155.664211,77.8834138 C155.658575,77.8657005 155.678301,77.8355072 155.722987,77.792029 C155.767673,77.7485507 155.824839,77.7050725 155.894082,77.6615942 C155.963728,77.6181159 156.044646,77.5786634 156.136836,77.5440419 C156.228623,77.5090177 156.322021,77.4917069 156.417029,77.4917069 C156.456079,77.4917069 156.512037,77.5138486 156.584098,77.5573269 C156.656562,77.6008052 156.72339,77.6527375 156.784984,77.7135266 C156.846176,77.7747182 156.890862,77.8383253 156.918639,77.905153 C156.94682,77.9715781 156.940781,78.0255233 156.901731,78.065781 C156.650926,78.3322866 156.404549,78.6281804 156.161795,78.952657 C155.919444,79.2775362 155.681119,79.607649 155.44682,79.9438003 C155.563969,79.8568438 155.683937,79.7658615 155.806723,79.6704509 C155.929106,79.5742351 156.044646,79.4820451 156.153744,79.391868 C156.262037,79.3020934 156.359863,79.2191626 156.446014,79.1442834 C156.532568,79.068599 156.597786,79.0049919 156.642874,78.952657 C156.714936,78.8717391 156.812762,78.7541868 156.935145,78.6004026 C157.057931,78.4470209 157.186353,78.289211 157.320008,78.1269726 C157.453663,77.9643317 157.584903,77.8181965 157.713325,77.6877617 C157.841345,77.5573269 157.947222,77.4776167 158.030958,77.4486312" id="Fill-25" fill="#000000"></path>
                <path d="M160.556119,79.5440821 C160.578663,79.5674316 160.588325,79.6181562 160.585507,79.696256 C160.582287,79.7743559 160.569807,79.8544686 160.547665,79.9353865 C160.525523,80.0167069 160.49372,80.0903784 160.451449,80.1568035 C160.409984,80.2236312 160.361272,80.2570451 160.305314,80.2570451 C159.970773,80.2687198 159.69219,80.296095 159.469163,80.3399758 C159.246135,80.3830515 159.070612,80.422504 158.94219,80.4571256 C158.880998,80.4744364 158.827858,80.4688003 158.783575,80.4398148 C158.738486,80.4104267 158.702657,80.3701691 158.674477,80.3178341 C158.44058,80.6543881 158.249758,80.9603462 158.10161,81.235306 C157.953865,81.5106683 157.868921,81.7324879 157.847182,81.9007649 C157.997343,81.8311192 158.178502,81.7630837 158.390258,81.696256 C158.602013,81.6298309 158.809742,81.5742754 159.013446,81.5311997 C159.216747,81.4873188 159.399114,81.4571256 159.56095,81.4394122 C159.722786,81.4221014 159.825845,81.4309581 159.870531,81.4655797 C159.920853,81.5062399 159.967955,81.577496 160.012641,81.6789452 C160.057327,81.7803945 160.087923,81.8818438 160.104831,81.9832931 C160.121337,82.0847424 160.118519,82.1729066 160.095974,82.2481884 C160.073833,82.3234702 160.021095,82.3528583 159.937359,82.3351449 C159.669646,82.2832126 159.368921,82.2771739 159.03438,82.3178341 C158.699839,82.3584944 158.345572,82.4454509 157.972383,82.5787037 C157.883011,82.6072866 157.80934,82.6060789 157.750564,82.5742754 C157.69219,82.5424718 157.648712,82.4973833 157.620934,82.4394122 C157.571014,82.4740338 157.520692,82.5046296 157.47037,82.5307971 C157.420451,82.556562 157.380998,82.5702496 157.353623,82.5702496 C157.292029,82.5702496 157.233253,82.5581723 157.177697,82.5352254 C157.122142,82.511876 157.07182,82.4845008 157.027134,82.4526973 C156.982448,82.4208937 156.946216,82.3886876 156.918841,82.3568841 C156.89066,82.3250805 156.87657,82.3005233 156.87657,82.2832126 C156.87657,82.196256 156.920048,82.0569646 157.006602,81.8657407 C157.092754,81.6745169 157.204267,81.4599436 157.341143,81.2224235 C157.477617,80.9845008 157.631804,80.7308776 157.804911,80.4611514 C157.978019,80.1918277 158.151932,79.9341787 158.327858,79.6873994 C158.502979,79.4410225 158.670451,79.2167874 158.829469,79.0138889 C158.988084,78.8109903 159.123349,78.6511675 159.234863,78.5352254 L158.975604,78.6133253 C158.891868,78.6483494 158.827858,78.6443237 158.783575,78.6004428 C158.738486,78.5573671 158.710709,78.4977858 158.699839,78.422504 C158.688567,78.3468196 158.691385,78.2719404 158.70789,78.196256 C158.724799,78.1209742 158.74694,78.0746779 158.775121,78.0573671 C158.880998,77.9816828 159.03438,77.912037 159.234863,77.84843 C159.435749,77.7848229 159.657568,77.7296699 159.899517,77.6833736 C160.142271,77.6370773 160.390258,77.5976248 160.643881,77.5658213 C160.897907,77.5340177 161.133414,77.5138889 161.350805,77.5050322 C161.568196,77.4961755 161.750564,77.4961755 161.898309,77.5050322 C162.046055,77.5138889 162.133816,77.535628 162.161594,77.5702496 C162.195008,77.6165459 162.213124,77.69062 162.215942,77.7916667 C162.21876,77.8931159 162.210306,77.9961755 162.190982,78.1004428 C162.171659,78.2051127 162.143478,78.2948873 162.107649,78.3701691 C162.071014,78.4454509 162.030757,78.4800725 161.986071,78.4744364 C161.829871,78.4514895 161.656763,78.4325684 161.467955,78.4180757 C161.277939,78.4035829 161.081481,78.3951288 160.87818,78.3919082 C160.674477,78.3890902 160.471176,78.3935185 160.267472,78.4051932 C160.063768,78.4164654 159.870531,78.4341787 159.686554,78.4571256 C159.753382,78.5034219 159.807729,78.5626006 159.849597,78.635467 C159.891465,78.7079308 159.887037,78.7759662 159.837118,78.8395733 C159.708696,78.9905395 159.581884,79.1394928 159.456683,79.2872383 C159.331079,79.4349839 159.212721,79.5847424 159.101208,79.735306 C159.234863,79.6773349 159.379791,79.6282206 159.53599,79.5871578 C159.69219,79.5469002 159.839936,79.5183172 159.978824,79.5006039 C160.118519,79.4832931 160.241304,79.477657 160.346779,79.4832931 C160.45306,79.4889291 160.522705,79.509058 160.556119,79.5440821" id="Fill-27" fill="#000000"></path>
                <path d="M164.268921,79.5440821 C164.291465,79.5674316 164.301127,79.6181562 164.298309,79.696256 C164.295089,79.7743559 164.282609,79.8544686 164.260467,79.9353865 C164.238325,80.0167069 164.206522,80.0903784 164.164251,80.1568035 C164.122786,80.2236312 164.074074,80.2570451 164.018116,80.2570451 C163.683575,80.2687198 163.404992,80.296095 163.181965,80.3399758 C162.958937,80.3830515 162.783414,80.422504 162.654992,80.4571256 C162.5938,80.4744364 162.54066,80.4688003 162.496377,80.4398148 C162.451288,80.4104267 162.415459,80.3701691 162.387279,80.3178341 C162.153382,80.6543881 161.96256,80.9603462 161.814412,81.235306 C161.666667,81.5106683 161.581723,81.7324879 161.559984,81.9007649 C161.710145,81.8311192 161.891304,81.7630837 162.10306,81.696256 C162.314815,81.6298309 162.522544,81.5742754 162.726248,81.5311997 C162.929549,81.4873188 163.111916,81.4571256 163.273752,81.4394122 C163.435588,81.4221014 163.538647,81.4309581 163.583333,81.4655797 C163.633655,81.5062399 163.680757,81.577496 163.725443,81.6789452 C163.770129,81.7803945 163.800725,81.8818438 163.817633,81.9832931 C163.834138,82.0847424 163.83132,82.1729066 163.808776,82.2481884 C163.786634,82.3234702 163.733897,82.3528583 163.650161,82.3351449 C163.382448,82.2832126 163.081723,82.2771739 162.747182,82.3178341 C162.412641,82.3584944 162.058374,82.4454509 161.685185,82.5787037 C161.595813,82.6072866 161.522142,82.6060789 161.463366,82.5742754 C161.404992,82.5424718 161.361514,82.4973833 161.333736,82.4394122 C161.283816,82.4740338 161.233494,82.5046296 161.183172,82.5307971 C161.133253,82.556562 161.0938,82.5702496 161.066425,82.5702496 C161.004831,82.5702496 160.946055,82.5581723 160.890499,82.5352254 C160.834944,82.511876 160.784622,82.4845008 160.739936,82.4526973 C160.69525,82.4208937 160.659018,82.3886876 160.631643,82.3568841 C160.603462,82.3250805 160.589372,82.3005233 160.589372,82.2832126 C160.589372,82.196256 160.63285,82.0569646 160.719404,81.8657407 C160.805556,81.6745169 160.917069,81.4599436 161.053945,81.2224235 C161.190419,80.9845008 161.344605,80.7308776 161.517713,80.4611514 C161.690821,80.1918277 161.864734,79.9341787 162.04066,79.6873994 C162.215781,79.4410225 162.383253,79.2167874 162.542271,79.0138889 C162.700886,78.8109903 162.836151,78.6511675 162.947665,78.5352254 L162.688406,78.6133253 C162.60467,78.6483494 162.54066,78.6443237 162.496377,78.6004428 C162.451288,78.5573671 162.42351,78.4977858 162.412641,78.422504 C162.401369,78.3468196 162.404187,78.2719404 162.420692,78.196256 C162.437601,78.1209742 162.459742,78.0746779 162.487923,78.0573671 C162.5938,77.9816828 162.747182,77.912037 162.947665,77.84843 C163.148551,77.7848229 163.37037,77.7296699 163.612319,77.6833736 C163.855072,77.6370773 164.10306,77.5976248 164.356683,77.5658213 C164.610709,77.5340177 164.846216,77.5138889 165.063607,77.5050322 C165.280998,77.4961755 165.463366,77.4961755 165.611111,77.5050322 C165.758857,77.5138889 165.846618,77.535628 165.874396,77.5702496 C165.90781,77.6165459 165.925926,77.69062 165.928744,77.7916667 C165.931562,77.8931159 165.923108,77.9961755 165.903784,78.1004428 C165.884461,78.2051127 165.85628,78.2948873 165.820451,78.3701691 C165.783816,78.4454509 165.743559,78.4800725 165.698873,78.4744364 C165.542673,78.4514895 165.369565,78.4325684 165.180757,78.4180757 C164.990741,78.4035829 164.794283,78.3951288 164.590982,78.3919082 C164.387279,78.3890902 164.183977,78.3935185 163.980274,78.4051932 C163.77657,78.4164654 163.583333,78.4341787 163.399356,78.4571256 C163.466184,78.5034219 163.520531,78.5626006 163.562399,78.635467 C163.604267,78.7079308 163.599839,78.7759662 163.549919,78.8395733 C163.421498,78.9905395 163.294686,79.1394928 163.169485,79.2872383 C163.043881,79.4349839 162.925523,79.5847424 162.81401,79.735306 C162.947665,79.6773349 163.092593,79.6282206 163.248792,79.5871578 C163.404992,79.5469002 163.552738,79.5183172 163.691626,79.5006039 C163.83132,79.4832931 163.954106,79.477657 164.059581,79.4832931 C164.165862,79.4889291 164.235507,79.509058 164.268921,79.5440821" id="Fill-29" fill="#000000"></path>
                <path d="M167.554791,78.6311997 C167.343035,78.8803945 167.138124,79.1340177 166.940459,79.3920692 C166.741989,79.6497182 166.556804,79.9033414 166.384098,80.1525362 C166.66872,80.0486715 166.979106,79.9299114 167.316465,79.796256 C167.653824,79.6630032 167.97025,79.5253221 168.265741,79.3832126 C168.561232,79.2415056 168.810427,79.1006039 169.01413,78.9613124 C169.217432,78.8224235 169.327738,78.6948068 169.344243,78.5788647 C169.361151,78.4395733 169.309219,78.3357085 169.190056,78.2660628 C169.070089,78.1964171 168.916707,78.1541465 168.729911,78.1396538 C168.543116,78.125161 168.339412,78.1368357 168.119203,78.1742754 C167.898994,78.2125201 167.694485,78.2688808 167.504871,78.3441626 C167.543921,78.396095 167.570089,78.4472222 167.584179,78.4963366 C167.597866,78.5454509 167.588205,78.5905395 167.554791,78.6311997 M169.352697,77.6569646 C169.469847,77.7789452 169.553583,77.8964976 169.603905,78.009219 C169.653824,78.122343 169.68442,78.2282206 169.695692,78.3264493 C169.706965,78.4250805 169.702536,78.5152576 169.683213,78.5961755 C169.663486,78.677496 169.637319,78.7471417 169.603905,78.8051127 C169.520169,78.9500403 169.386514,79.0989936 169.202536,79.2527778 C169.018559,79.406562 168.810427,79.5571256 168.579348,79.7048712 C168.347866,79.8526167 168.105515,79.9919082 167.85149,80.122343 C167.597866,80.2523752 167.361151,80.3671095 167.140942,80.4657407 C166.920733,80.564372 166.731119,80.6408615 166.572504,80.6960145 C166.413486,80.75157 166.314452,80.7757246 166.275403,80.769686 C166.197303,80.7584138 166.119605,80.7266103 166.041103,80.6742754 C165.924356,80.8659018 165.822504,81.0394122 165.73595,81.1960145 C165.649799,81.3526167 165.584179,81.4874799 165.539493,81.6006039 C165.495209,81.7133253 165.472665,81.7990741 165.472665,81.8570451 C165.472665,81.9150161 165.503261,81.9351449 165.564855,81.9178341 C165.67033,81.8888486 165.703744,81.9061594 165.665097,81.9701691 C165.626047,82.0337762 165.557609,82.1106683 165.460185,82.2004428 C165.362762,82.2902174 165.256481,82.3743559 165.142552,82.4524557 C165.028221,82.5309581 164.951329,82.5700081 164.912681,82.5700081 C164.856723,82.5700081 164.795531,82.553905 164.728301,82.5221014 C164.661473,82.4902979 164.600282,82.4524557 164.544324,82.4089775 C164.488768,82.3654992 164.442874,82.3220209 164.406643,82.2789452 C164.370411,82.2350644 164.352295,82.2048712 164.352295,82.1875604 C164.352295,82.1179147 164.384098,82.009219 164.448108,81.8610709 C164.512118,81.7133253 164.597464,81.5438406 164.703341,81.3526167 C164.809219,81.1613929 164.931602,80.9528583 165.071296,80.7266103 C165.210588,80.5007649 165.355515,80.2745169 165.506079,80.0486715 C165.656643,79.8224235 165.808414,79.6006039 165.961795,79.3832126 C166.115177,79.1658213 166.261312,78.967351 166.401006,78.7878019 C166.345048,78.8051127 166.294726,78.8179952 166.250443,78.8264493 C166.205354,78.835306 166.177979,78.8340982 166.166707,78.8224235 C166.122021,78.7990741 166.083374,78.7568035 166.04996,78.6960145 C166.016546,78.635628 165.991184,78.5675926 165.974275,78.4919082 C165.95777,78.4166264 165.953341,78.340942 165.961795,78.2660628 C165.97025,78.1903784 165.99682,78.1207327 166.041103,78.0571256 C166.080153,77.9995572 166.179187,77.9383655 166.338205,77.8743559 C166.497222,77.8107488 166.686836,77.7503623 166.907045,77.6919887 C167.127254,77.6340177 167.363567,77.5845008 167.617593,77.5442432 C167.871216,77.5035829 168.113969,77.477818 168.345048,77.4657407 C168.57653,77.4544686 168.782649,77.4633253 168.963808,77.4919082 C169.144968,77.5208937 169.274597,77.5760467 169.352697,77.6569646" id="Fill-31" fill="#000000"></path>
                <path d="M171.485024,81.4917069 C171.496296,81.5380032 171.518841,81.5859098 171.552254,81.6350242 C171.585668,81.6845411 171.629952,81.7252013 171.68591,81.7570048 C171.741868,81.7888084 171.812319,81.8033011 171.898873,81.8004831 C171.985427,81.7976651 172.090097,81.7698873 172.212882,81.7179549 C172.447182,81.607649 172.679469,81.4297101 172.91095,81.1829308 C173.142029,80.9365539 173.350161,80.66562 173.534138,80.3701288 C173.718116,80.0742351 173.871095,79.7775362 173.993881,79.4788245 C174.116264,79.1805153 174.186312,78.9236715 174.202818,78.7095008 C174.208454,78.6108696 174.180274,78.5267311 174.119485,78.4570853 C174.05789,78.3874396 173.97818,78.3355072 173.880757,78.3004831 C173.783333,78.2658615 173.675845,78.2529791 173.559098,78.2618357 C173.441948,78.2702899 173.336071,78.3065217 173.241063,78.3701288 C172.990258,78.5267311 172.749517,78.7457327 172.517633,79.0267311 C172.286554,79.3077295 172.085668,79.6008052 171.915781,79.905153 C171.745491,80.2090982 171.619082,80.5066023 171.535346,80.7960548 C171.45161,81.0859098 171.435105,81.3177939 171.485024,81.4917069 M173.458454,77.6136876 C173.603784,77.5384058 173.757166,77.4977456 173.918599,77.4917069 C174.080032,77.4864734 174.227778,77.5122383 174.361836,77.5702093 C174.495894,77.6281804 174.604187,77.7151369 174.687923,77.8310789 C174.771659,77.9470209 174.80789,78.0830918 174.797021,78.239694 C174.780113,78.4309179 174.726973,78.6603865 174.637601,78.9268921 C174.548229,79.1933977 174.435507,79.4731884 174.299034,79.7658615 C174.162158,80.0585346 174.006361,80.352818 173.830837,80.6483092 C173.655314,80.9442029 173.470129,81.2175523 173.274477,81.4699678 C173.07963,81.7219807 172.880354,81.9425926 172.676651,82.1309984 C172.473349,82.3194042 172.27971,82.4482287 172.095733,82.5178744 C171.945169,82.5814815 171.798631,82.613285 171.656924,82.613285 C171.514412,82.613285 171.384783,82.5887279 171.267633,82.5396135 C171.150886,82.4900966 171.051852,82.4248792 170.970934,82.3439614 C170.890016,82.2626409 170.838486,82.1728663 170.816345,82.0742351 C170.771659,81.9007246 170.775684,81.6845411 170.828824,81.4264895 C170.881562,81.168438 170.969726,80.8934783 171.09211,80.6004026 C171.214895,80.308132 171.366667,80.0090177 171.547826,79.7050725 C171.728986,79.4007246 171.924235,79.1136876 172.133172,78.8439614 C172.342512,78.5746377 172.561111,78.3310789 172.789775,78.1136876 C173.018438,77.8962963 173.241063,77.7296296 173.458454,77.6136876" id="Fill-33" fill="#000000"></path>
                <path d="M177.029509,77.491868 C177.057287,77.491868 177.104791,77.5063607 177.172021,77.5353462 L177.196578,77.552657 C177.241264,77.5820451 177.28756,77.6138486 177.334662,77.6484702 C177.382166,77.6834944 177.422826,77.7221417 177.45624,77.7660225 C177.489654,77.8095008 177.514614,77.8541868 177.531119,77.9008857 C177.548027,77.947182 177.550845,77.9906602 177.539573,78.0313205 C177.416787,78.4020934 177.301248,78.7946055 177.192552,79.2092593 C177.083857,79.623913 176.987641,80.0091787 176.903905,80.3658615 C176.820169,80.7221417 176.753341,81.0293076 176.703019,81.2873591 C176.6531,81.5454106 176.625322,81.7036232 176.619686,81.7611916 C176.608414,81.8775362 176.618478,81.9351047 176.649074,81.9351047 C176.67967,81.9351047 176.714694,81.9093398 176.753341,81.8570048 C176.853583,81.7120773 176.966707,81.4906602 177.092311,81.1915459 C177.217915,80.8932367 177.355998,80.552657 177.506159,80.1698068 C177.656723,79.7873591 177.816948,79.378744 177.986836,78.9439614 C178.157126,78.5091787 178.333857,78.0804348 178.517834,77.6569243 C178.546014,77.5993559 178.605596,77.5804348 178.697786,77.6009662 C178.789573,77.621095 178.881763,77.6617552 178.973551,77.7221417 C179.065741,77.7833333 179.141023,77.8541868 179.199799,77.9355072 C179.258172,78.0168277 179.27025,78.0864734 179.236836,78.1440419 C179.086272,78.3759259 178.926449,78.6456522 178.756159,78.952818 C178.586272,79.2603865 178.410749,79.5760064 178.229187,79.9004831 C178.048027,80.2253623 177.870089,80.5454106 177.694163,80.8614332 C177.518639,81.1770531 177.34996,81.4612721 177.188527,81.713285 C177.026691,81.9657005 176.877335,82.1730274 176.740862,82.3348631 C176.604388,82.497504 176.491264,82.5872786 176.402295,82.6045894 C176.346739,82.6162641 176.285145,82.6061997 176.218317,82.5743961 C176.15149,82.5425926 176.087077,82.5031401 176.026288,82.4568438 C175.964291,82.4105475 175.910346,82.3570048 175.863245,82.2962158 C175.815338,82.2350242 175.789171,82.1786634 175.783535,82.1267311 C175.772262,82.0683575 175.777899,81.9568438 175.80004,81.7917874 C175.822585,81.6267311 175.855998,81.4306763 175.900684,81.2048309 C175.94537,80.9785829 175.999316,80.7281804 176.063728,80.4524155 C176.127738,80.1774557 176.196176,79.9004831 176.268237,79.6223027 C176.341103,79.3441224 176.416385,79.0747987 176.494485,78.8135266 C176.572182,78.5530596 176.650684,78.3179549 176.728382,78.1094203 C176.605596,78.3006441 176.478784,78.5236715 176.347947,78.778905 C176.216707,79.0341385 176.08587,79.3018519 175.955032,79.5828502 C175.823792,79.8646538 175.695773,80.1484702 175.570169,80.4355072 C175.444565,80.7221417 175.329026,80.9930757 175.223551,81.2483092 C175.117271,81.5035427 175.025081,81.7322061 174.947383,81.9351047 C174.869283,82.1380032 174.810507,82.2978261 174.77186,82.4137681 C174.74368,82.4886473 174.685306,82.5333333 174.595934,82.5482287 C174.506562,82.5627214 174.414775,82.555475 174.320169,82.5264895 C174.225161,82.497504 174.141425,82.4556361 174.068961,82.4000805 C173.9969,82.3453301 173.966304,82.2857488 173.977174,82.2221417 C173.988446,82.1585346 174.037158,82.0337359 174.123712,81.8481481 C174.209863,81.6625604 174.320169,81.4435588 174.454227,81.1915459 C174.587882,80.939533 174.739654,80.665781 174.909541,80.3698873 C175.079428,80.0743961 175.253744,79.7829308 175.432085,79.4962963 C175.610829,79.2092593 175.78756,78.9383253 175.963486,78.6830918 C176.13901,78.4282609 176.301651,78.2136876 176.452214,78.0397746 C176.491264,77.9934783 176.505354,77.9616747 176.494485,77.9439614 C176.483213,77.9266506 176.462279,77.9169887 176.431683,77.9137681 C176.400684,77.9109501 176.368881,77.9093398 176.335467,77.9093398 C176.301651,77.9093398 176.282729,77.9008857 176.277093,77.8835749 C176.271055,77.8658615 176.290781,77.8356683 176.335467,77.7917874 C176.380153,77.7487118 176.438527,77.7048309 176.51099,77.6617552 C176.583454,77.6178744 176.664372,77.5788245 176.753341,77.5442029 C176.842713,77.5091787 176.934903,77.491868 177.029509,77.491868" id="Fill-35" fill="#000000"></path>
                <path d="M183.066586,78.6311997 C182.838325,78.8916667 182.618116,79.1573671 182.405958,79.4266908 C182.194203,79.6964171 182.000564,79.9584944 181.82504,80.2137279 C181.649114,80.4685588 181.493317,80.7105072 181.356844,80.9395733 C181.219968,81.1686393 181.115298,81.3699275 181.043237,81.5438406 C181.265862,81.4339372 181.511433,81.2890097 181.779147,81.109058 C182.046457,80.9295089 182.314171,80.735467 182.581884,80.5265298 C182.849195,80.3175926 183.107246,80.1034219 183.355233,79.88281 C183.603221,79.6630032 183.817794,79.4556763 183.998953,79.2612319 C184.180515,79.06719 184.315781,78.893277 184.40475,78.7398953 C184.49372,78.5865137 184.51868,78.4717794 184.480032,78.396095 C184.42971,78.3091385 184.35,78.2455314 184.241707,78.2048712 C184.132609,78.1646135 184.010225,78.1440821 183.873752,78.1440821 C183.736876,78.1440821 183.593559,78.1613929 183.443398,78.1964171 C183.292834,78.2310386 183.150322,78.2773349 183.016667,78.3357085 C183.06095,78.3820048 183.090741,78.4311192 183.104428,78.4834541 C183.118116,78.5353865 183.105636,78.5849034 183.066586,78.6311997 M184.54686,77.7177536 C184.714332,77.9210548 184.793639,78.1440821 184.785185,78.3876409 C184.776731,78.6311997 184.707085,78.8848229 184.576248,79.1485105 C184.445008,79.4121981 184.267874,79.680314 184.04525,79.9524557 C183.822222,80.2254026 183.580676,80.4874799 183.32182,80.7394928 C183.06256,80.9915056 182.799275,81.2294283 182.531562,81.4528583 C182.263849,81.6754831 182.018277,81.8687198 181.795652,82.0305556 C181.572625,82.1931965 181.385829,82.3208132 181.235266,82.4138084 C181.084702,82.5059984 181.001369,82.5522947 180.984461,82.5522947 C180.945411,82.5470612 180.907971,82.5293478 180.871739,82.5003623 C180.835507,82.4713768 180.794847,82.4335346 180.750564,82.3872383 C180.688969,82.4335346 180.627375,82.4758052 180.566586,82.5136473 C180.504992,82.551087 180.455072,82.5700081 180.416023,82.5700081 C180.360064,82.5700081 180.304509,82.5583333 180.248551,82.5349839 C180.192593,82.512037 180.141063,82.4842593 180.093961,82.4524557 C180.046457,82.4206522 180.008615,82.3888486 179.98124,82.3570451 C179.953462,82.3252415 179.938969,82.3002818 179.938969,82.282971 C179.938969,82.2076892 179.973994,82.0905395 180.043639,81.9307166 C180.113285,81.7716989 180.205475,81.5889291 180.319807,81.3832126 C180.434138,81.1770934 180.566586,80.9552738 180.716747,80.7181562 C180.867311,80.4802335 181.022303,80.2427134 181.180918,80.0047907 C181.339936,79.7672705 181.500161,79.5382045 181.661997,79.3179952 C181.82343,79.0977858 181.973994,78.903744 182.113688,78.735467 C182.018277,78.7644525 181.9281,78.79062 181.841546,78.8135668 C181.754992,78.8369163 181.700644,78.8397343 181.678905,78.8224235 C181.633816,78.7990741 181.595169,78.7568035 181.561755,78.6960145 C181.528341,78.635628 181.502979,78.5675926 181.486071,78.4919082 C181.469565,78.4166264 181.465137,78.340942 181.473591,78.2660628 C181.482045,78.1903784 181.508615,78.1207327 181.552899,78.0571256 C181.591948,77.9995572 181.683736,77.9383655 181.829066,77.8743559 C181.973994,77.8107488 182.145491,77.7527778 182.343156,77.7004428 C182.541224,77.6485105 182.754589,77.6034219 182.983253,77.5659823 C183.211514,77.5285427 183.428905,77.506401 183.635427,77.5003623 C183.841546,77.4951288 184.027134,77.5080113 184.191385,77.5398148 C184.355636,77.5716184 184.474396,77.6311997 184.54686,77.7177536" id="Fill-37" fill="#000000"></path>
                <path d="M186.21091,80.3613929 C186.222182,80.3613929 186.235064,80.3597826 186.248752,80.3569646 C186.26244,80.3541465 186.274919,80.3529388 186.286192,80.3529388 C186.437158,80.0107488 186.598591,79.6669485 186.771699,79.322343 C186.944002,78.9773349 187.111071,78.6629227 187.273309,78.3787037 C186.89368,78.7438406 186.562359,79.0876409 186.27814,79.4092995 C185.993519,79.7309581 185.739895,80.0453704 185.516868,80.3529388 C185.667432,80.3646135 185.803905,80.3714573 185.926691,80.3742754 C186.049477,80.377496 186.144082,80.3730676 186.21091,80.3613929 M185.717351,82.2221014 C185.689573,82.1001208 185.720169,81.8948068 185.809541,81.6049517 C185.898913,81.3150966 186.018478,80.9873994 186.169042,80.6218599 C186.090942,80.6339372 185.969767,80.64843 185.805515,80.6657407 C185.640862,80.6830515 185.458494,80.7003623 185.258011,80.7180757 C185.05149,81.0135668 184.863084,81.3034219 184.693196,81.5872383 C184.523309,81.8714573 184.35463,82.1584944 184.18756,82.4483494 C184.15938,82.4946457 184.098188,82.5324879 184.003583,82.5614734 C183.908575,82.5900564 183.812359,82.6061594 183.714936,82.6089775 C183.617512,82.6117955 183.533776,82.6017311 183.46413,82.5787842 C183.394485,82.5554348 183.370733,82.5175926 183.392874,82.4656602 C183.465338,82.2627617 183.602214,82.0123591 183.8031,81.7132448 C184.003583,81.4149356 184.243116,81.0977053 184.522101,80.7611514 C184.332488,80.7728261 184.163808,80.7832931 184.016063,80.7917472 C183.868317,80.8006039 183.766465,80.8022142 183.71091,80.7961755 C183.649316,80.7961755 183.582488,80.7514895 183.510024,80.6613124 C183.43756,80.5715378 183.380395,80.4773349 183.338527,80.3787037 C183.297061,80.280475 183.281763,80.1947262 183.292633,80.1222625 C183.303905,80.0497987 183.359461,80.0280596 183.460105,80.0570451 C183.532568,80.0803945 183.622746,80.1017311 183.731844,80.1222625 C183.840137,80.1427939 183.958494,80.164533 184.087319,80.1874799 C184.215338,80.2108293 184.350604,80.2309581 184.492311,80.2482689 C184.634823,80.2659823 184.77814,80.2832931 184.92347,80.3006039 C185.224597,79.9523752 185.537802,79.6121981 185.864291,79.2788647 C186.189976,78.9455314 186.492311,78.6456119 186.771699,78.3787037 C187.049879,78.1121981 187.292633,77.8948068 187.498752,77.7265298 C187.704871,77.5586554 187.838929,77.4688808 187.900121,77.4572061 C187.933535,77.4511675 187.987882,77.4644525 188.063567,77.496256 C188.138446,77.5284622 188.21091,77.5687198 188.280958,77.6182367 C188.350201,77.667351 188.406159,77.7208937 188.448027,77.7788647 C188.489895,77.8368357 188.493921,77.8919887 188.460507,77.9439211 C188.293438,78.1991546 188.127576,78.4733092 187.963325,78.7655797 C187.798269,79.0586554 187.644082,79.3497182 187.498752,79.6395733 C187.353824,79.9298309 187.221377,80.2108293 187.101812,80.4833736 C186.981844,80.7555153 186.8812,80.9990741 186.800684,81.2132448 C186.719767,81.427818 186.66099,81.6049517 186.624758,81.7442432 C186.588527,81.8827295 186.581683,81.9612319 186.604227,81.9789452 C186.609461,81.9845813 186.630395,81.9813607 186.667029,81.9700886 C186.703261,81.9584138 186.73909,81.9479469 186.775322,81.9394928 C186.811554,81.9306361 186.839734,81.9306361 186.859058,81.9394928 C186.878382,81.9479469 186.874356,81.9789452 186.846578,82.030475 C186.813164,82.0948873 186.774114,82.1584944 186.729428,82.2221014 C186.685145,82.2857085 186.637641,82.3440821 186.587721,82.3960145 C186.537399,82.4483494 186.487077,82.4918277 186.437158,82.5264493 C186.386836,82.5614734 186.338929,82.5755636 186.294646,82.5699275 C186.244726,82.5642915 186.187158,82.5497987 186.123148,82.5264493 C186.059138,82.5030998 185.997947,82.4773349 185.939171,82.4483494 C185.880797,82.4189614 185.830878,82.3843398 185.788607,82.3440821 C185.747142,82.3034219 185.722987,82.2627617 185.717351,82.2221014" id="Fill-39" fill="#000000"></path>
                <path d="M190.366828,77.491868 C190.394605,77.491868 190.44211,77.5063607 190.50934,77.5353462 L190.533897,77.552657 C190.578583,77.5820451 190.624879,77.6138486 190.671981,77.6484702 C190.719485,77.6834944 190.760145,77.7221417 190.793559,77.7660225 C190.826973,77.8095008 190.851932,77.8541868 190.868438,77.9008857 C190.885346,77.947182 190.888164,77.9906602 190.876892,78.0313205 C190.754106,78.4020934 190.638567,78.7946055 190.529871,79.2092593 C190.421176,79.623913 190.32496,80.0091787 190.241224,80.3658615 C190.157488,80.7221417 190.09066,81.0293076 190.040338,81.2873591 C189.990419,81.5454106 189.962641,81.7036232 189.957005,81.7611916 C189.945733,81.8775362 189.955797,81.9351047 189.986393,81.9351047 C190.016989,81.9351047 190.052013,81.9093398 190.09066,81.8570048 C190.190902,81.7120773 190.304026,81.4906602 190.42963,81.1915459 C190.555233,80.8932367 190.693317,80.552657 190.843478,80.1698068 C190.994042,79.7873591 191.154267,79.378744 191.324155,78.9439614 C191.494444,78.5091787 191.671176,78.0804348 191.855153,77.6569243 C191.883333,77.5993559 191.942915,77.5804348 192.035105,77.6009662 C192.126892,77.621095 192.219082,77.6617552 192.31087,77.7221417 C192.40306,77.7833333 192.478341,77.8541868 192.537118,77.9355072 C192.595491,78.0168277 192.607568,78.0864734 192.574155,78.1440419 C192.423591,78.3759259 192.263768,78.6456522 192.093478,78.952818 C191.923591,79.2603865 191.748068,79.5760064 191.566506,79.9004831 C191.385346,80.2253623 191.207407,80.5454106 191.031481,80.8614332 C190.855958,81.1770531 190.687279,81.4612721 190.525845,81.713285 C190.36401,81.9657005 190.214654,82.1730274 190.07818,82.3348631 C189.941707,82.497504 189.828583,82.5872786 189.739614,82.6045894 C189.684058,82.6162641 189.622464,82.6061997 189.555636,82.5743961 C189.488808,82.5425926 189.424396,82.5031401 189.363607,82.4568438 C189.30161,82.4105475 189.247665,82.3570048 189.200564,82.2962158 C189.152657,82.2350242 189.12649,82.1786634 189.120853,82.1267311 C189.109581,82.0683575 189.115217,81.9568438 189.137359,81.7917874 C189.159903,81.6267311 189.193317,81.4306763 189.238003,81.2048309 C189.282689,80.9785829 189.336634,80.7281804 189.401047,80.4524155 C189.465056,80.1774557 189.533494,79.9004831 189.605556,79.6223027 C189.678422,79.3441224 189.753704,79.0747987 189.831804,78.8135266 C189.909501,78.5530596 189.988003,78.3179549 190.0657,78.1094203 C189.942915,78.3006441 189.816103,78.5236715 189.685266,78.778905 C189.554026,79.0341385 189.423188,79.3018519 189.292351,79.5828502 C189.161111,79.8646538 189.033092,80.1484702 188.907488,80.4355072 C188.781884,80.7221417 188.666345,80.9930757 188.56087,81.2483092 C188.454589,81.5035427 188.362399,81.7322061 188.284702,81.9351047 C188.206602,82.1380032 188.147826,82.2978261 188.109179,82.4137681 C188.080998,82.4886473 188.022625,82.5333333 187.933253,82.5482287 C187.843881,82.5627214 187.752093,82.555475 187.657488,82.5264895 C187.56248,82.497504 187.478744,82.4556361 187.40628,82.4000805 C187.334219,82.3453301 187.303623,82.2857488 187.314493,82.2221417 C187.325765,82.1585346 187.374477,82.0337359 187.461031,81.8481481 C187.547182,81.6625604 187.657488,81.4435588 187.791546,81.1915459 C187.925201,80.939533 188.076973,80.665781 188.24686,80.3698873 C188.416747,80.0743961 188.591063,79.7829308 188.769404,79.4962963 C188.948148,79.2092593 189.124879,78.9383253 189.300805,78.6830918 C189.476329,78.4282609 189.638969,78.2136876 189.789533,78.0397746 C189.828583,77.9934783 189.842673,77.9616747 189.831804,77.9439614 C189.820531,77.9266506 189.799597,77.9169887 189.769002,77.9137681 C189.738003,77.9109501 189.7062,77.9093398 189.672786,77.9093398 C189.638969,77.9093398 189.620048,77.9008857 189.614412,77.8835749 C189.608374,77.8658615 189.6281,77.8356683 189.672786,77.7917874 C189.717472,77.7487118 189.775845,77.7048309 189.848309,77.6617552 C189.920773,77.6178744 190.001691,77.5788245 190.09066,77.5442029 C190.180032,77.5091787 190.272222,77.491868 190.366828,77.491868" id="Fill-41" fill="#000000"></path>
                <path d="M194.597786,77.5441626 C194.7093,77.5035024 194.837721,77.4890097 194.982649,77.5006844 C195.127174,77.5123591 195.265258,77.5457729 195.396095,77.6009259 C195.527738,77.6556763 195.638849,77.7265298 195.730636,77.8138889 C195.822826,77.9008454 195.86872,77.993438 195.86872,78.0916667 C195.86872,78.2369968 195.811957,78.4149356 195.697222,78.6266908 C195.58289,78.8384461 195.432729,79.0340982 195.245934,79.2132448 C195.059138,79.393599 194.844565,79.5296699 194.602214,79.6222625 C194.359461,79.7152576 194.109863,79.7152576 193.853422,79.6222625 C193.75318,79.5872383 193.686353,79.5179952 193.652939,79.4137279 C193.619525,79.3094605 193.609863,79.206401 193.623551,79.1049517 C193.637238,79.0035024 193.669444,78.9177536 193.719767,78.8485105 C193.769686,78.7788647 193.83128,78.7587359 193.903744,78.7877214 C194.059944,78.8513285 194.220169,78.8891707 194.384823,78.9004428 C194.549074,78.9121176 194.700845,78.9064815 194.840539,78.883132 C194.979428,78.8601852 195.096578,78.8255636 195.191586,78.7788647 C195.286192,78.7325684 195.34215,78.6786232 195.359058,78.6178341 C195.375564,78.5574477 195.34376,78.496256 195.26244,78.435467 C195.181522,78.3746779 195.038205,78.3211353 194.832085,78.2744364 C194.62033,78.2281401 194.390056,78.2659823 194.142069,78.3875604 C193.894082,78.5091385 193.656965,78.6818438 193.431522,78.9048712 C193.205676,79.1283011 193.001973,79.3815217 192.820813,79.6661433 C192.639654,79.9499597 192.507609,80.2297504 192.423873,80.5047101 C192.340137,80.7800725 192.319203,81.0292673 192.360668,81.2526973 C192.402939,81.4761272 192.532166,81.6395733 192.749557,81.7442432 C192.872343,81.8018116 193.003583,81.8352254 193.142874,81.8440821 C193.281763,81.8525362 193.417029,81.8456924 193.548671,81.822343 C193.679509,81.7989936 193.801892,81.7655797 193.916626,81.7221014 C194.030556,81.6790258 194.121135,81.6307166 194.187963,81.5783816 C194.277335,81.5147746 194.328865,81.4946457 194.342552,81.5175926 C194.356643,81.5413446 194.335709,81.5844203 194.280153,81.6480274 C194.084903,81.8686393 193.888446,82.0441626 193.690378,82.1741948 C193.492713,82.3046296 193.321216,82.4016506 193.176288,82.4656602 C193.053502,82.5232287 192.915419,82.5566425 192.762037,82.5659018 C192.609058,82.5743559 192.461312,82.5626812 192.319203,82.5308776 C192.176691,82.4990741 192.05149,82.4471417 191.942794,82.3742754 C191.834098,82.3018116 191.768881,82.2136473 191.746337,82.1089775 C191.696014,81.8948068 191.688768,81.6496377 191.725403,81.3746779 C191.761634,81.098913 191.835709,80.8106683 191.947222,80.5091385 C192.058333,80.2076087 192.203663,79.9048712 192.382005,79.6005233 C192.559944,79.2965781 192.763647,79.0107488 192.992311,78.7438406 C193.220974,78.4773349 193.470169,78.2398148 193.7407,78.0312802 C194.011232,77.822343 194.296659,77.6601047 194.597786,77.5441626" id="Fill-43" fill="#000000"></path>
                <path d="M196.211634,78.3265298 C196.183857,78.2745974 196.161715,78.2077697 196.144807,78.1268519 C196.128301,78.0455314 196.121055,77.9686393 196.123873,77.8965781 C196.126691,77.8241143 196.140781,77.761715 196.165741,77.70938 C196.1907,77.6570451 196.228543,77.6369163 196.278865,77.6481884 C196.418156,77.6775765 196.578382,77.6977053 196.759541,77.70938 C196.9407,77.7210548 197.12186,77.7222625 197.303019,77.7138084 C197.484179,77.7049517 197.656884,77.6848229 197.821538,77.6526167 C197.985789,77.6212158 198.121055,77.5761272 198.226932,77.5181562 C198.294163,77.483132 198.340056,77.4875604 198.365016,77.5310386 C198.389976,77.5745169 198.40004,77.635306 198.394404,77.7138084 C198.388768,77.7919082 198.37186,77.8732287 198.344082,77.9573671 C198.316304,78.0411031 198.285306,78.1002818 198.251892,78.135306 C198.201973,78.1876409 198.115419,78.2427939 197.993035,78.3007649 C197.770008,78.5439211 197.553824,78.8047907 197.344485,79.0833736 C197.13595,79.3611514 196.943116,79.6369163 196.767995,79.9094605 C196.592069,80.1816023 196.436272,80.4440821 196.299799,80.696095 C196.162923,80.9485105 196.055435,81.1675121 195.977738,81.3526973 C195.899638,81.538285 195.853341,81.6832126 195.839654,81.7874799 C195.825564,81.8917472 195.852134,81.9352254 195.918961,81.9179147 C196.024839,81.8889291 196.058253,81.9062399 196.019203,81.9702496 C195.980556,82.0338567 195.912118,82.1103462 195.814694,82.2005233 C195.716868,82.2902979 195.61099,82.3744364 195.497061,82.4525362 C195.382327,82.5306361 195.305837,82.5700886 195.266787,82.5700886 C195.211232,82.5700886 195.149638,82.5539855 195.08281,82.522182 C195.015982,82.4903784 194.954388,82.4525362 194.898833,82.409058 C194.843277,82.3655797 194.796981,82.3221014 194.760749,82.2786232 C194.724919,82.2351449 194.706804,82.2049517 194.706804,82.1876409 C194.706804,82.1119565 194.740217,81.9915862 194.807045,81.8265298 C194.873873,81.6610709 194.96405,81.4702496 195.078784,81.2528583 C195.193116,81.035467 195.323953,80.7991546 195.471699,80.5439211 C195.619042,80.2890902 195.774034,80.0338567 195.935467,79.7786232 C196.097705,79.5237923 196.261957,79.2741948 196.429026,79.0310386 C196.596498,78.7878824 196.755515,78.5700886 196.906079,78.3788647 C196.727335,78.3961755 196.572343,78.4018116 196.441506,78.3961755 C196.310668,78.3905395 196.234179,78.3675926 196.211634,78.3265298" id="Fill-45" fill="#000000"></path>
                <path d="M199.657126,77.491868 C199.684903,77.491868 199.732407,77.5063607 199.799638,77.5353462 L199.824195,77.552657 C199.868881,77.5820451 199.915177,77.6138486 199.962279,77.6484702 C200.009783,77.6834944 200.050443,77.7221417 200.083857,77.7660225 C200.117271,77.8095008 200.14223,77.8541868 200.158736,77.9008857 C200.175644,77.947182 200.178462,77.9906602 200.16719,78.0313205 C200.044404,78.4020934 199.928865,78.7946055 199.820169,79.2092593 C199.711473,79.623913 199.615258,80.0091787 199.531522,80.3658615 C199.447786,80.7221417 199.380958,81.0293076 199.330636,81.2873591 C199.280717,81.5454106 199.252939,81.7036232 199.247303,81.7611916 C199.236031,81.8775362 199.246095,81.9351047 199.276691,81.9351047 C199.307287,81.9351047 199.342311,81.9093398 199.380958,81.8570048 C199.4812,81.7120773 199.594324,81.4906602 199.719928,81.1915459 C199.845531,80.8932367 199.983615,80.552657 200.133776,80.1698068 C200.28434,79.7873591 200.444565,79.378744 200.614452,78.9439614 C200.784742,78.5091787 200.961473,78.0804348 201.145451,77.6569243 C201.173631,77.5993559 201.233213,77.5804348 201.325403,77.6009662 C201.41719,77.621095 201.50938,77.6617552 201.601167,77.7221417 C201.693357,77.7833333 201.768639,77.8541868 201.827415,77.9355072 C201.885789,78.0168277 201.897866,78.0864734 201.864452,78.1440419 C201.713889,78.3759259 201.554066,78.6456522 201.383776,78.952818 C201.213889,79.2603865 201.038366,79.5760064 200.856804,79.9004831 C200.675644,80.2253623 200.497705,80.5454106 200.321779,80.8614332 C200.146256,81.1770531 199.977576,81.4612721 199.816143,81.713285 C199.654308,81.9657005 199.504952,82.1730274 199.368478,82.3348631 C199.232005,82.497504 199.118881,82.5872786 199.029911,82.6045894 C198.974356,82.6162641 198.912762,82.6061997 198.845934,82.5743961 C198.779106,82.5425926 198.714694,82.5031401 198.653905,82.4568438 C198.591908,82.4105475 198.537963,82.3570048 198.490862,82.2962158 C198.442955,82.2350242 198.416787,82.1786634 198.411151,82.1267311 C198.399879,82.0683575 198.405515,81.9568438 198.427657,81.7917874 C198.450201,81.6267311 198.483615,81.4306763 198.528301,81.2048309 C198.572987,80.9785829 198.626932,80.7281804 198.691345,80.4524155 C198.755354,80.1774557 198.823792,79.9004831 198.895853,79.6223027 C198.96872,79.3441224 199.044002,79.0747987 199.122101,78.8135266 C199.199799,78.5530596 199.278301,78.3179549 199.355998,78.1094203 C199.233213,78.3006441 199.106401,78.5236715 198.975564,78.778905 C198.844324,79.0341385 198.713486,79.3018519 198.582649,79.5828502 C198.451409,79.8646538 198.32339,80.1484702 198.197786,80.4355072 C198.072182,80.7221417 197.956643,80.9930757 197.851167,81.2483092 C197.744887,81.5035427 197.652697,81.7322061 197.575,81.9351047 C197.4969,82.1380032 197.438124,82.2978261 197.399477,82.4137681 C197.371296,82.4886473 197.312923,82.5333333 197.223551,82.5482287 C197.134179,82.5627214 197.042391,82.555475 196.947786,82.5264895 C196.852778,82.497504 196.769042,82.4556361 196.696578,82.4000805 C196.624517,82.3453301 196.593921,82.2857488 196.604791,82.2221417 C196.616063,82.1585346 196.664775,82.0337359 196.751329,81.8481481 C196.83748,81.6625604 196.947786,81.4435588 197.081844,81.1915459 C197.215499,80.939533 197.367271,80.665781 197.537158,80.3698873 C197.707045,80.0743961 197.881361,79.7829308 198.059702,79.4962963 C198.238446,79.2092593 198.415177,78.9383253 198.591103,78.6830918 C198.766626,78.4282609 198.929267,78.2136876 199.079831,78.0397746 C199.118881,77.9934783 199.132971,77.9616747 199.122101,77.9439614 C199.110829,77.9266506 199.089895,77.9169887 199.0593,77.9137681 C199.028301,77.9109501 198.996498,77.9093398 198.963084,77.9093398 C198.929267,77.9093398 198.910346,77.9008857 198.90471,77.8835749 C198.898671,77.8658615 198.918398,77.8356683 198.963084,77.7917874 C199.00777,77.7487118 199.066143,77.7048309 199.138607,77.6617552 C199.211071,77.6178744 199.291989,77.5788245 199.380958,77.5442029 C199.47033,77.5091787 199.56252,77.491868 199.657126,77.491868" id="Fill-47" fill="#000000"></path>
                <path d="M203.687601,80.0221417 C203.754428,80.0165056 203.821256,80.020934 203.888084,80.0354267 C203.954911,80.0495169 204.01248,80.0732689 204.059581,80.1046699 C204.107085,80.136876 204.140499,80.1714976 204.159823,80.2093398 C204.179549,80.247182 204.175121,80.2830113 204.147746,80.3176329 C204.069243,80.4223027 203.981079,80.5511272 203.884058,80.7049114 C203.786232,80.8582931 203.696055,81.010467 203.612319,81.1614332 C203.528583,81.3119968 203.462963,81.4436393 203.415459,81.5571659 C203.368357,81.6702899 203.358696,81.7351047 203.386473,81.752818 C203.39211,81.7584541 203.419887,81.7495974 203.470209,81.726248 C203.520129,81.7037037 203.566023,81.6847826 203.608293,81.6702899 C203.649758,81.6557971 203.67351,81.6557971 203.679147,81.6702899 C203.68438,81.6847826 203.648148,81.7294686 203.570451,81.8047504 C203.430757,81.9436393 203.307166,82.0933977 203.198068,82.2524155 C203.089775,82.4122383 202.994767,82.5567633 202.913849,82.6871981 C202.832931,82.8176329 202.763285,82.9279388 202.704911,83.0177134 C202.646538,83.1074879 202.594605,83.1525765 202.550322,83.1525765 C202.5,83.1525765 202.445652,83.1409018 202.387279,83.1175523 C202.328502,83.0946055 202.276973,83.0628019 202.232689,83.0221417 C202.187601,82.9814815 202.148953,82.9380032 202.115539,82.8917069 C202.082126,82.8454106 202.065217,82.8015298 202.065217,82.7612721 C202.059581,82.7033011 202.070451,82.626409 202.098631,82.5305958 C202.126409,82.4351852 202.164251,82.3293076 202.211353,82.2133655 C202.258857,82.0974235 202.314815,81.9714171 202.378824,81.8353462 C202.442834,81.6988728 202.51409,81.5611916 202.591787,81.4223027 C202.502818,81.5438808 202.413446,81.6642512 202.324477,81.7830113 C202.235507,81.9017713 202.146135,82.0092593 202.056763,82.1046699 C201.967794,82.2004831 201.884058,82.2785829 201.805958,82.3397746 C201.727858,82.400161 201.655395,82.4335749 201.588567,82.4396135 C201.521739,82.4512882 201.451691,82.4440419 201.37963,82.4178744 C201.307166,82.3917069 201.238728,82.3570853 201.174718,82.3132045 C201.110709,82.2701288 201.056361,82.2222222 201.011675,82.1698873 C200.966989,82.1179549 200.939211,82.06562 200.928341,82.013285 C200.883253,81.8397746 200.884863,81.6223833 200.931965,81.3611111 C200.979066,81.1006441 201.062802,80.8236715 201.18277,80.5309984 C201.302738,80.2383253 201.454911,79.9396135 201.638486,79.6352657 C201.822464,79.3309179 202.030596,79.0426731 202.261675,78.7701288 C202.492754,78.4979871 202.745169,78.2540258 203.018519,78.0398551 C203.291868,77.8252818 203.578502,77.6602254 203.880032,77.5442834 C203.991143,77.5036232 204.120773,77.4891304 204.268519,77.5004026 C204.416667,77.5124799 204.555556,77.5458937 204.686393,77.6006441 C204.818035,77.6557971 204.927939,77.7266506 205.017311,77.8140097 C205.105878,77.9005636 205.150966,77.9935588 205.150966,78.0917874 C205.150966,78.236715 205.093398,78.4150564 204.979469,78.6268116 C204.865137,78.8385668 204.714573,79.034219 204.527778,79.2133655 C204.340982,79.3933172 204.126409,79.5293881 203.884058,79.6223833 C203.641707,79.7149758 203.39211,79.7149758 203.135668,79.6223833 C203.035427,79.5873591 202.968196,79.5181159 202.934783,79.4134461 C202.901369,79.3091787 202.891304,79.2065217 202.905797,79.1050725 C202.919485,79.0036232 202.952899,78.9178744 203.006039,78.8486312 C203.058776,78.7789855 203.121578,78.7584541 203.194042,78.7878422 C203.350242,78.8514493 203.509259,78.8892915 203.670692,78.9005636 C203.832126,78.9122383 203.982689,78.9066023 204.122383,78.8832528 C204.261675,78.8599034 204.378824,78.8252818 204.47343,78.7789855 C204.568438,78.7326892 204.623994,78.678744 204.640902,78.6179549 C204.657407,78.5571659 204.625201,78.4963768 204.544686,78.4355878 C204.463768,78.3743961 204.320048,78.3208535 204.113929,78.2745572 C203.913446,78.2282609 203.69847,78.2644928 203.470209,78.3832528 C203.241546,78.5024155 203.021337,78.6674718 202.809179,78.8788245 C202.597424,79.0905797 202.402576,79.3309179 202.223833,79.6006441 C202.045491,79.8699678 201.903382,80.1324477 201.797907,80.3872786 C201.691626,80.6425121 201.632045,80.8760064 201.617552,81.0873591 C201.603865,81.2991143 201.658213,81.4484702 201.780998,81.5354267 C201.869968,81.6050725 201.977456,81.6062802 202.102657,81.5398551 C202.228261,81.4730274 202.35628,81.3788245 202.48752,81.2568438 C202.618357,81.1352657 202.745169,81.0020129 202.867955,80.8570853 C202.990741,80.7121578 203.0938,80.5962158 203.177134,80.5092593 C203.277375,80.3699678 203.372383,80.2568438 203.461353,80.1698873 C203.550725,80.0829308 203.626006,80.0338164 203.687601,80.0221417" id="Fill-49" fill="#000000"></path>
            </g>
        </g>
    </g>
</svg>